<svg width="127" height="127" viewBox="0 0 127 127" fill="none" xmlns="http://www.w3.org/2000/svg">
<circle cx="63.5" cy="63.5" r="62.5" stroke="#1C3B72" stroke-width="2"/>
<path d="M31 76.2927C31.1283 76.0054 31.2322 75.7078 31.3848 75.4308C32.0376 74.1994 33.0637 73.5184 34.4631 73.4837C35.7829 73.4504 37.104 73.4773 38.4841 73.4773C38.5033 73.208 38.529 72.981 38.5367 72.7526C38.6735 68.4901 38.8099 64.2283 38.9458 59.9675C38.9702 59.1786 39.3409 58.7413 39.9604 58.7669C40.5542 58.7913 40.889 59.221 40.8659 59.9893C40.736 64.2296 40.6017 68.47 40.4632 72.7103C40.4568 72.9399 40.4632 73.1708 40.4632 73.4363H44.1392C44.1392 73.2336 44.1392 73.031 44.1392 72.8283C43.898 65.4977 43.6561 58.1675 43.4132 50.8377C43.3157 47.8757 43.2191 44.9142 43.1234 41.953C43.1157 41.7401 43.099 41.5272 43.0874 41.3117C43.0618 40.7987 42.845 40.4331 42.2832 40.4408C41.7214 40.4485 41.5137 40.7999 41.4919 41.3232C41.4636 42.1749 41.4213 43.0279 41.3931 43.8795C41.2623 47.8009 41.134 51.7215 41.0083 55.6412C41.0083 55.7053 41.0083 55.7694 41.0019 55.8336C40.957 56.43 40.5748 56.8302 40.0502 56.834C39.5025 56.834 39.0779 56.4069 39.0895 55.7784C39.1126 54.415 39.1677 53.0503 39.2177 51.6868C39.3366 48.1716 39.458 44.6559 39.582 41.1398C39.5911 40.4491 39.8676 39.7889 40.3534 39.2978C40.8392 38.8067 41.4965 38.5231 42.187 38.5066C43.6762 38.4502 44.9113 39.4788 44.9832 40.9859C45.1422 44.3297 45.2332 47.6761 45.3461 51.0212C45.5898 58.2654 45.8314 65.5101 46.0708 72.7552C46.0785 72.9668 46.0926 73.1772 46.1067 73.4709H70.111C70.3248 73.4594 70.5392 73.4641 70.7523 73.485C71.2846 73.5645 71.604 73.8698 71.6065 74.4265C71.6091 74.9831 71.2885 75.291 70.76 75.3782C70.5266 75.4026 70.2915 75.4077 70.0571 75.3936H35.0326C33.4562 75.3936 32.9201 75.9271 32.9188 77.4945C32.9188 79.8819 32.9188 82.2697 32.9188 84.658C32.9188 85.9816 33.5011 86.5639 34.835 86.5652C39.2729 86.5652 43.7104 86.5652 48.1474 86.5652C48.4045 86.5558 48.662 86.5687 48.917 86.6037C49.4569 86.6973 49.7442 87.0385 49.7186 87.5862C49.6955 88.0992 49.3966 88.4083 48.881 88.4712C48.6474 88.4934 48.4127 88.5016 48.1782 88.4956H35.3776C32.7931 88.4956 31.9697 87.9556 31 85.6251V76.2927Z" fill="#1C3B72"/>
<path d="M89.0858 73.4709C90.3261 73.4709 91.5382 73.4709 92.749 73.4709C95.077 73.4786 96.5379 74.9408 96.5418 77.2674C96.5418 79.7617 96.5418 82.256 96.5418 84.7503C96.5418 87.0051 95.0924 88.4904 92.8221 88.4917C79.5333 88.5028 66.2436 88.5028 52.9531 88.4917C52.7813 88.496 52.6095 88.484 52.44 88.4557C52.2239 88.4289 52.0259 88.3215 51.8854 88.1551C51.7449 87.9887 51.6723 87.7755 51.682 87.5579C51.6679 87.0769 51.9052 86.7293 52.3849 86.6216C52.6785 86.5691 52.9769 86.548 53.275 86.5588C66.2868 86.5588 79.299 86.5588 92.3117 86.5588C92.5246 86.5588 92.7388 86.5588 92.953 86.5588C93.9611 86.5177 94.5998 85.9097 94.6063 84.9093C94.6242 82.2876 94.6242 79.6655 94.6063 77.043C94.5998 75.9887 93.906 75.391 92.7567 75.391C86.9122 75.391 81.0673 75.391 75.222 75.391C74.0112 75.391 73.5251 75.1088 73.5366 74.4123C73.5482 73.7158 74.024 73.4709 75.2579 73.4709H81.4466C81.4799 72.7834 81.5197 72.151 81.5402 71.5174C81.8574 61.7601 82.1729 52.0023 82.4868 42.2441C82.5009 41.817 82.5188 41.3912 82.5599 40.9615C82.6229 40.2776 82.9432 39.6431 83.4561 39.1863C83.9691 38.7295 84.6363 38.4845 85.3229 38.5008C86.0095 38.5171 86.6644 38.7934 87.1551 39.274C87.6457 39.7546 87.9356 40.4036 87.9661 41.0898C88.1046 44.859 88.2329 48.6299 88.3509 52.4025C88.5758 59.2432 88.799 66.0838 89.0204 72.9245C89.0307 73.0861 89.0589 73.2541 89.0858 73.4709ZM87.0863 73.4362C87.0863 73.1797 87.0863 72.945 87.0863 72.7154C86.7724 62.9572 86.4569 53.1982 86.1397 43.4383C86.1166 42.7149 86.0832 41.9902 86.0512 41.2655C86.0294 40.7678 85.7882 40.451 85.2713 40.4408C84.7544 40.4305 84.5018 40.7422 84.4671 41.2411C84.4517 41.4528 84.4351 41.6657 84.4287 41.8824C84.2833 46.2938 84.1396 50.7047 83.9977 55.1153C83.8036 60.9956 83.6082 66.8765 83.4115 72.7577C83.4115 72.9822 83.4115 73.2066 83.4115 73.4401L87.0863 73.4362Z" fill="#1C3B72"/>
<path d="M64.0381 47.5042C68.8056 47.5991 73.1281 49.3204 76.7425 52.7771C77.1529 53.1696 77.3646 53.6069 77.0272 54.1367C76.7463 54.5753 76.3115 54.6689 75.8485 54.4881C75.6396 54.3819 75.4525 54.2375 75.297 54.0623C72.7689 51.6586 69.7894 50.149 66.3353 49.6475C61.0599 48.8779 56.4334 50.3119 52.4624 53.8622C52.3034 54.0045 52.1585 54.1623 51.9943 54.297C51.5313 54.6728 50.9785 54.6561 50.618 54.2675C50.2576 53.8788 50.2179 53.3004 50.695 52.9079C51.8763 51.9357 53.0358 50.9096 54.3299 50.1105C57.2223 48.3238 60.4288 47.5299 64.0381 47.5042Z" fill="#93D500"/>
<path d="M63.4535 52.6539C67.3117 52.7218 70.4002 53.9083 72.986 56.3363C73.2079 56.5453 73.4682 56.8429 73.4785 57.1059C73.4913 57.4162 73.3323 57.8562 73.0937 58.0204C72.8551 58.1845 72.4216 58.132 72.0945 58.0653C71.8945 58.0255 71.7316 57.7844 71.5597 57.6253C69.4357 55.6709 66.6548 54.5861 63.7684 54.5861C60.882 54.5861 58.1011 55.6709 55.9771 57.6253C55.9002 57.6984 55.8245 57.7741 55.745 57.8446C55.2088 58.3192 54.6906 58.3449 54.2751 57.9165C53.8787 57.5099 53.9275 56.9288 54.42 56.4543C56.3473 54.5553 58.816 53.3006 61.486 52.8629C62.2427 52.7501 63.0097 52.7026 63.4535 52.6539Z" fill="#93D500"/>
<path d="M63.5504 57.7177C66.0105 57.7536 67.919 58.5194 69.5352 60.0264C69.8815 60.3471 70.0918 60.7498 69.875 61.1603C69.7288 61.4386 69.362 61.7554 69.0798 61.767C68.7553 61.7811 68.3628 61.5425 68.0922 61.3078C66.7916 60.1804 65.2999 59.6147 63.5812 59.6596C62.1184 59.6905 60.7123 60.2307 59.6051 61.1872C59.5076 61.2693 59.4178 61.3616 59.3204 61.4437C58.7663 61.9119 58.2545 61.9298 57.8492 61.4963C57.4439 61.0628 57.5131 60.5049 58.0121 60.0316C59.1675 58.9108 60.6309 58.1601 62.2152 57.8755C62.7372 57.778 63.2695 57.7498 63.5504 57.7177Z" fill="#93D500"/>
<path d="M63.751 62.1607C64.7437 62.143 65.7042 62.5135 66.4279 63.1932C66.9178 63.646 66.9627 64.1667 66.5766 64.6041C66.2149 65.0107 65.7045 65.0351 65.2055 64.6695C64.123 63.8769 63.4214 63.882 62.3209 64.6875C61.8528 65.0312 61.2948 64.9914 60.9434 64.5913C60.5919 64.1911 60.6342 63.6511 61.0857 63.2253C61.8003 62.5348 62.7574 62.1525 63.751 62.1607V62.1607Z" fill="#93D500"/>
<path d="M54.4907 83.9795C53.9776 83.9795 53.4646 83.9962 52.9515 83.9795C52.704 83.9809 52.4657 83.8853 52.2878 83.7132C52.1099 83.541 52.0065 83.306 51.9998 83.0586C51.9947 82.9351 52.0141 82.8118 52.057 82.6959C52.0998 82.58 52.1653 82.4737 52.2495 82.3833C52.3337 82.2928 52.4351 82.22 52.5476 82.169C52.6602 82.1181 52.7818 82.09 52.9054 82.0863C53.97 82.0517 55.0371 82.0504 56.1004 82.0863C56.224 82.0901 56.3457 82.119 56.4578 82.1712C56.57 82.2235 56.6703 82.298 56.7527 82.3903C56.8352 82.4826 56.898 82.5906 56.9373 82.708C56.9766 82.8253 56.9917 82.9494 56.9815 83.0727C56.961 83.5857 56.5852 83.9551 56.0196 83.9705C55.5142 83.9949 55.0024 83.9795 54.4907 83.9795Z" fill="#1C3B72"/>
<path d="M39.9658 83.9781C39.4527 83.9781 38.9397 83.9961 38.433 83.9781C37.8892 83.9537 37.5673 83.651 37.5185 83.1033C37.4711 82.5788 37.8148 82.1144 38.3612 82.0939C39.4463 82.052 40.5323 82.052 41.6191 82.0939C41.7424 82.102 41.8629 82.1345 41.9735 82.1896C42.0842 82.2446 42.1828 82.321 42.2637 82.4144C42.3446 82.5078 42.4061 82.6164 42.4447 82.7338C42.4833 82.8511 42.4983 82.975 42.4887 83.0982C42.4528 83.6113 42.0693 83.964 41.4998 83.9832C40.9867 84.0012 40.4737 83.9832 39.9606 83.9832L39.9658 83.9781Z" fill="#1C3B72"/>
<path d="M80.4541 83.9807C79.9411 83.9807 79.428 83.9948 78.915 83.9807C78.3288 83.9602 77.9748 83.619 77.9479 83.0905C77.9351 82.9621 77.9495 82.8325 77.9902 82.71C78.0309 82.5876 78.097 82.4751 78.1842 82.38C78.2714 82.2848 78.3776 82.2091 78.496 82.1578C78.6144 82.1066 78.7424 82.0809 78.8714 82.0824C79.9129 82.0503 80.9582 82.0516 82.001 82.0824C82.1245 82.0851 82.2463 82.1121 82.3594 82.1619C82.4724 82.2117 82.5745 82.2834 82.6598 82.3728C82.7452 82.4621 82.812 82.5674 82.8565 82.6827C82.9011 82.7979 82.9224 82.9209 82.9193 83.0444C82.9193 83.5792 82.5204 83.9589 81.9176 83.9794C81.4341 83.9884 80.9428 83.9807 80.4541 83.9807Z" fill="#1C3B72"/>
<path d="M61.7252 83.9781C61.2122 83.9781 60.6991 83.9974 60.1861 83.9781C59.6423 83.9525 59.3216 83.6472 59.2754 83.0995C59.2305 82.5737 59.5743 82.1145 60.1232 82.0927C61.2071 82.0516 62.296 82.0516 63.3798 82.0927C63.5035 82.0993 63.6245 82.131 63.7356 82.1859C63.8467 82.2407 63.9454 82.3175 64.0259 82.4117C64.1064 82.5058 64.1669 82.6153 64.2038 82.7336C64.2406 82.8518 64.2531 82.9763 64.2404 83.0995C64.1725 83.6241 63.8723 83.9461 63.317 83.9833C63.2746 83.9833 63.2323 83.9833 63.1887 83.9833H61.7188L61.7252 83.9781Z" fill="#1C3B72"/>
<path d="M47.2328 83.9782C46.7198 83.9782 46.2067 83.9962 45.7 83.9782C45.1395 83.9538 44.7663 83.5716 44.7548 83.056C44.7494 82.9324 44.7688 82.8091 44.8117 82.6931C44.8546 82.577 44.9201 82.4708 45.0046 82.3804C45.089 82.29 45.1906 82.2173 45.3034 82.1666C45.4162 82.1159 45.538 82.0882 45.6616 82.0851C46.7249 82.0517 47.7907 82.0492 48.854 82.0851C49.4043 82.1056 49.7455 82.5532 49.7236 83.0752C49.7018 83.5973 49.3453 83.941 48.7655 83.9795C48.7232 83.9795 48.6809 83.9795 48.6373 83.9795H47.2264L47.2328 83.9782Z" fill="#1C3B72"/>
<path d="M87.5802 83.9794C87.0672 83.9794 86.5541 83.9961 86.0411 83.9794C85.4703 83.9563 85.1112 83.5946 85.0984 83.0623C85.0898 82.9386 85.1066 82.8144 85.1477 82.6973C85.1887 82.5803 85.2533 82.4728 85.3374 82.3816C85.4214 82.2903 85.5232 82.2172 85.6365 82.1666C85.7498 82.1161 85.8722 82.0892 85.9962 82.0875C87.0595 82.0516 88.1253 82.0516 89.1874 82.0875C89.3108 82.092 89.4321 82.1214 89.544 82.1739C89.6559 82.2264 89.756 82.3009 89.8384 82.393C89.9208 82.4851 89.9838 82.5928 90.0235 82.7098C90.0633 82.8268 90.079 82.9507 90.0698 83.0739C90.0493 83.5959 89.685 83.9563 89.113 83.9794C88.6025 83.9961 88.0907 83.9794 87.5802 83.9794Z" fill="#1C3B72"/>
<path d="M63.7637 68.6354C64.4204 68.6354 64.9527 68.103 64.9527 67.4464C64.9527 66.7897 64.4204 66.2574 63.7637 66.2574C63.107 66.2574 62.5747 66.7897 62.5747 67.4464C62.5747 68.103 63.107 68.6354 63.7637 68.6354Z" fill="#1C3B72"/>
</svg>
