<svg width="127" height="127" viewBox="0 0 127 127" fill="none" xmlns="http://www.w3.org/2000/svg">
<circle cx="63.5" cy="63.5" r="62.5" stroke="#1C3B72" stroke-width="2"/>
<path d="M63.0887 74.7723C69.0845 74.7723 73.945 69.9118 73.945 63.916C73.945 57.9202 69.0845 53.0597 63.0887 53.0597C57.093 53.0597 52.2324 57.9202 52.2324 63.916C52.2324 69.9118 57.093 74.7723 63.0887 74.7723Z" fill="#93D500"/>
<path d="M94.3518 74.7797C93.9947 75.2896 93.6951 75.8534 93.2707 76.2974C91.8374 77.798 90.349 79.2447 88.9035 80.7331C88.1697 81.4864 87.3503 81.8741 86.3352 81.4595C85.2969 81.0388 84.9239 80.1791 84.968 79.1029C84.9753 78.9243 84.968 78.7445 84.968 78.5305H81.8592V79.2643C81.8592 83.0885 81.8677 86.9128 81.8592 90.737C81.8518 93.0606 80.4955 94.7324 78.3248 95.1066C77.9626 95.1567 77.5968 95.1755 77.2314 95.1629C67.8317 95.1629 58.4324 95.1629 49.0334 95.1629C46.0176 95.1629 44.3397 93.496 44.3397 90.4936V57.7107H41.2297C41.2297 58.0164 41.2419 58.3148 41.2297 58.6096C41.1807 59.5439 40.7662 60.2593 39.8844 60.6128C39.0026 60.9662 38.1991 60.7864 37.529 60.1163C35.8461 58.4322 34.1621 56.7506 32.5038 55.0434C31.5988 54.1115 31.6146 52.8604 32.5245 51.9309C34.1596 50.2591 35.8156 48.6069 37.4641 46.9461C38.1429 46.2612 38.9427 46.0068 39.855 46.3688C40.7894 46.7357 41.2077 47.4903 41.2321 48.476C41.2394 48.7377 41.2321 48.9995 41.2321 49.2991H44.3409V37.7763C44.3409 34.769 45.0747 33.6928 47.841 32.6667H78.3578C78.7357 32.8061 79.1344 32.9113 79.489 33.0886C81.1706 33.9447 81.8616 35.378 81.8604 37.2284C81.8514 47.9269 81.8514 58.6263 81.8604 69.3264V70.1079H84.9692C84.9692 69.8988 84.9692 69.741 84.9692 69.5747C84.9325 68.5034 85.2859 67.6351 86.3316 67.2168C87.3466 66.8096 88.1746 67.1728 88.9071 67.931C90.2793 69.3497 91.6967 70.7231 93.0652 72.1478C93.5471 72.6517 93.9311 73.2485 94.3604 73.8037L94.3518 74.7797ZM46.4224 49.3419H47.2198C52.366 49.3419 57.5123 49.3345 62.6585 49.3492C63.5322 49.3449 64.4052 49.3976 65.272 49.507C73.3228 50.5967 79.0011 58.5313 77.4198 66.5063C77.1752 67.7292 76.7459 68.9155 76.3986 70.1263H79.7679V37.4253C79.7679 37.2223 79.7679 37.018 79.7593 36.8138C79.6798 35.5566 78.8446 34.7604 77.5776 34.747C76.5197 34.736 75.4618 34.7249 74.4052 34.7592C74.1347 34.7775 73.8791 34.8895 73.6824 35.0759C72.8923 35.8684 72.1402 36.6964 71.3747 37.5121C70.9636 37.9653 70.4597 38.3247 69.8973 38.5657C69.3349 38.8067 68.7271 38.9237 68.1154 38.9087C64.78 38.8973 61.4441 38.8973 58.1079 38.9087C57.4862 38.9248 56.8684 38.8061 56.2969 38.5608C55.7254 38.3155 55.2138 37.9494 54.7973 37.4876C54.0476 36.6866 53.3089 35.8733 52.5299 35.0992C52.3188 34.9007 52.0459 34.7807 51.757 34.7592C50.8226 34.7176 49.8858 34.7433 48.9503 34.7433C47.1904 34.7433 46.4236 35.5064 46.4236 37.2675C46.4236 41.0506 46.4236 44.8332 46.4236 48.6154L46.4224 49.3419ZM50.6086 63.9185C50.6089 66.3889 51.3417 68.8038 52.7144 70.8577C54.0872 72.9116 56.0382 74.5123 58.3207 75.4574C60.6032 76.4024 63.1147 76.6494 65.5376 76.167C67.9605 75.6847 70.1859 74.4946 71.9324 72.7474C73.6789 71.0002 74.8681 68.7743 75.3495 66.3513C75.831 63.9282 75.583 61.4168 74.6371 59.1346C73.6911 56.8525 72.0896 54.9021 70.0352 53.5302C67.9807 52.1582 65.5656 51.4263 63.0951 51.427C61.4542 51.4243 59.8289 51.7456 58.3124 52.3724C56.7959 52.9993 55.4181 53.9193 54.258 55.0799C53.0979 56.2404 52.1784 57.6186 51.5521 59.1353C50.9259 60.6521 50.6052 62.2775 50.6086 63.9185V63.9185ZM79.7459 78.4914H78.9656C73.8389 78.4914 68.7123 78.4999 63.5868 78.484C62.6921 78.4866 61.7982 78.4302 60.9109 78.3153C52.8687 77.2293 47.1782 69.2653 48.7717 61.3038C49.0163 60.0808 49.4468 58.8982 49.7905 57.7009H46.4224V58.387C46.4224 67.3766 46.4224 76.3663 46.4224 85.3559C46.4224 87.1207 47.1757 87.8593 48.9601 87.8593H68.4285C71.4859 87.8593 74.5311 87.8654 77.5825 87.8593C78.792 87.8593 79.6994 87.1255 79.7263 85.9796C79.7862 83.5227 79.7459 81.0596 79.7459 78.4914ZM46.4224 89.6339V90.4802C46.4224 92.333 47.1647 93.0814 48.9967 93.0814H77.1947C77.399 93.0814 77.6032 93.0887 77.8062 93.0741C78.677 93.0093 79.4805 92.4442 79.6407 91.6249C79.7813 90.9278 79.7496 90.1952 79.785 89.629C78.7296 89.7415 77.7757 89.9274 76.8205 89.9298C67.7062 89.9518 58.5918 89.9518 49.4774 89.9298C48.488 89.931 47.4937 89.7427 46.4224 89.6375V89.6339ZM33.9395 53.4951L39.1445 58.5802C39.1445 58.0653 39.1445 57.5272 39.1445 56.9903C39.1445 55.8897 39.4478 55.5962 40.5644 55.5949C43.919 55.5949 47.2736 55.6035 50.6269 55.5778C50.896 55.5778 51.2201 55.3858 51.4194 55.1852C52.0187 54.5811 52.5287 53.884 53.1487 53.3043C53.836 52.661 54.6053 52.1058 55.4442 51.4258H54.6444C49.9482 51.4258 45.252 51.4258 40.5558 51.4258C39.4551 51.4258 39.1457 51.1042 39.142 50.0047C39.142 49.4752 39.142 48.9444 39.142 48.3867L33.9395 53.4951ZM87.0531 69.2567C87.0531 69.7545 87.0531 70.2742 87.0531 70.7928C87.0531 71.9436 86.7621 72.2383 85.621 72.2383C82.3484 72.2383 79.0757 72.2481 75.803 72.2285C75.293 72.2285 74.9775 72.3704 74.6314 72.7777C73.8694 73.6465 73.061 74.4736 72.2099 75.2554C71.7953 75.6492 71.2951 75.9525 70.6837 76.4074H84.6745C87.0507 76.4074 87.0507 76.4074 87.0543 78.7543V79.4062L92.2532 74.3247L87.0531 69.2567ZM55.1116 34.769C55.4638 35.1493 55.7475 35.4135 55.9823 35.7143C56.6342 36.5521 57.4597 36.8627 58.5298 36.8444C61.5346 36.793 64.5468 36.7294 67.5468 36.8639C69.265 36.9422 70.0771 35.9124 71.0371 34.769H55.1116Z" fill="#1C3B72"/>
<path d="M59.6585 65.7016L58.6251 64.2157L57.61 65.7016H56.4727L58.0564 63.5247L56.5522 61.4212H57.6773L58.6618 62.8093L59.6279 61.4212H60.698L59.206 63.488L60.802 65.7016H59.6585Z" fill="white"/>
<path d="M62.0395 65.4876C61.6929 65.3058 61.403 65.032 61.2017 64.6964C61.0481 64.4426 60.9477 64.1603 60.9067 63.8665C60.8657 63.5727 60.885 63.2737 60.9634 62.9876C61.0418 62.7015 61.1776 62.4344 61.3626 62.2025C61.5476 61.9706 61.7779 61.7789 62.0395 61.6389C62.4114 61.45 62.8226 61.3515 63.2398 61.3515C63.657 61.3515 64.0682 61.45 64.4402 61.6389C64.7893 61.8251 65.0812 62.1027 65.2848 62.442C65.4883 62.7812 65.5959 63.1694 65.5959 63.5651C65.5959 63.9608 65.4883 64.349 65.2848 64.6882C65.0812 65.0275 64.7893 65.3051 64.4402 65.4913C64.0682 65.6802 63.657 65.7787 63.2398 65.7787C62.8226 65.7787 62.4114 65.6802 62.0395 65.4913V65.4876ZM63.9265 64.7538C64.1285 64.6383 64.2945 64.469 64.4059 64.2646C64.5208 64.0458 64.5808 63.8024 64.5808 63.5553C64.5808 63.3082 64.5208 63.0648 64.4059 62.846C64.2946 62.6416 64.1286 62.4722 63.9265 62.3568C63.7165 62.2421 63.481 62.1819 63.2416 62.1819C63.0023 62.1819 62.7668 62.2421 62.5568 62.3568C62.354 62.4718 62.1875 62.6412 62.0761 62.846C61.9621 63.065 61.9026 63.3084 61.9026 63.5553C61.9026 63.8023 61.9621 64.0456 62.0761 64.2646C62.1877 64.4693 62.3541 64.6387 62.5568 64.7538C62.767 64.8678 63.0025 64.9275 63.2416 64.9275C63.4808 64.9275 63.7162 64.8678 63.9265 64.7538V64.7538Z" fill="white"/>
<path d="M67.3202 62.2161V63.3474H69.3014V64.1423H67.3202V65.7016H66.3296V61.4212H69.5643V62.2161H67.3202Z" fill="white"/>
</svg>
