<svg width="127" height="127" viewBox="0 0 127 127" fill="none" xmlns="http://www.w3.org/2000/svg">
<circle cx="63.5" cy="63.5" r="62.5" stroke="#1C3B72" stroke-width="2"/>
<path d="M62.6906 65.0843C67.4786 65.0843 71.3601 61.2028 71.3601 56.4147C71.3601 51.6267 67.4786 47.7452 62.6906 47.7452C57.9025 47.7452 54.021 51.6267 54.021 56.4147C54.021 61.2028 57.9025 65.0843 62.6906 65.0843Z" fill="#93D500"/>
<path d="M33.5 78.6839C34.667 77.3566 35.8402 76.0354 36.9925 74.6959C37.1516 74.5112 37.3094 74.2433 37.3082 74.0145C37.2935 68.7176 38.4691 63.6592 40.26 58.7097C40.7463 57.3097 41.1571 55.8845 41.4906 54.4404C41.98 52.4342 43.6045 51.1729 45.6756 51.2879C45.9386 51.3014 46.2016 51.3283 46.5588 51.3564V50.631C46.5588 46.2981 46.6591 41.9615 46.5258 37.631C46.4279 34.4026 48.9455 32.6521 51.5413 32.6668C57.8487 32.6998 64.1548 32.6741 70.4622 32.6815C71.1935 32.6638 71.9251 32.6965 72.6519 32.7793C74.9566 33.1059 76.5053 34.9018 76.5053 37.2346C76.5118 44.9259 76.5118 52.6164 76.5053 60.3061C76.5096 60.4486 76.5047 60.5912 76.4906 60.7331C76.4197 61.2469 76.1114 61.5441 75.6049 61.5821C75.0985 61.62 74.7413 61.357 74.6153 60.8615C74.5624 60.6033 74.5418 60.3395 74.5541 60.0762C74.5541 53.6065 74.5541 47.1364 74.5541 40.666V39.9222H48.5479C48.5369 40.1155 48.5136 40.3088 48.5136 40.5008C48.5136 44.3261 48.5063 48.1514 48.5234 51.9767C48.5366 52.294 48.6201 52.6045 48.7681 52.8856C49.4103 54.1713 49.6244 55.5609 49.7039 56.9604C49.8935 60.1618 49.7773 63.3436 48.7669 66.4337C48.7248 66.6221 48.7522 66.8193 48.8439 66.9891C50.2311 69.6118 51.0128 72.4132 51.3272 75.3504C51.3688 75.7333 51.5352 75.8164 51.8753 75.8115C52.9126 75.7981 53.9549 75.8054 54.9874 75.8115C55.1703 75.8064 55.3533 75.8129 55.5354 75.8311C56.1226 75.9045 56.4823 76.3082 56.4529 76.8465C56.426 77.3566 56.0578 77.7383 55.4901 77.7517C54.4124 77.7774 53.3335 77.7627 52.2557 77.7639H51.5217V81.3739H58.2781C59.072 81.3739 59.5014 81.7079 59.5112 82.3244C59.5246 82.9618 59.0793 83.3251 58.2622 83.3263C55.9232 83.3263 53.5854 83.3263 51.1988 83.3263C51.1278 83.6811 51.0765 84.0163 50.992 84.3453C50.8416 84.9655 50.4061 85.2677 49.8409 85.1625C49.3235 85.0659 49.0262 84.6206 49.0898 84.0175C49.2341 82.6425 49.4568 81.2736 49.5204 79.8962C49.7223 75.447 48.9907 71.1911 46.746 67.268C46.6053 67.0233 46.5502 66.5927 46.6689 66.3554C47.4751 64.7455 47.6341 63.0011 47.7442 61.2603C47.88 59.1281 47.8922 56.9898 47.42 54.8832C47.1411 53.6379 46.6395 53.2159 45.4713 53.2305C44.303 53.2452 43.6706 53.8679 43.366 55.0251C42.8767 56.8687 42.3653 58.7134 41.7206 60.5068C40.0912 64.9875 39.2586 69.7189 39.2606 74.4867C39.2383 74.8839 39.0866 75.2628 38.8287 75.5657C37.7351 76.8526 36.5962 78.0991 35.4659 79.3579C34.7037 80.2044 34.174 80.1836 33.5024 79.3016L33.5 78.6839ZM48.5467 37.8793H74.515C74.6373 36.1263 74.0954 35.1954 72.7241 34.7904C72.373 34.6889 72.0094 34.6375 71.6439 34.6375C64.9133 34.6286 58.183 34.6286 51.4532 34.6375C49.3981 34.6351 48.3693 35.785 48.5516 37.8793H48.5467Z" fill="#1C3B72"/>
<path d="M76.1078 95.1667C75.8045 94.8083 75.358 94.4951 75.2258 94.0829C74.8589 92.9415 74.1604 92.2479 73.0337 91.8723C72.2288 91.602 71.4923 91.1384 70.6947 90.8399C69.5937 90.4325 68.7374 89.7303 67.9643 88.8716C66.8731 87.6666 65.722 86.5155 64.5647 85.3069C64.2479 85.6996 63.9641 86.0886 63.6436 86.4433C61.049 89.3083 57.7962 90.7665 53.9501 90.6197C52.4822 90.5634 51.4387 90.9035 50.5872 92.073C50.1848 92.6271 49.6502 93.0871 49.1596 93.5752C48.6691 94.0633 48.1113 94.0853 47.7002 93.6975C47.2892 93.3097 47.2917 92.7189 47.7467 92.2296C48.7841 91.1384 49.8422 90.0668 50.8723 88.9694C51.2796 88.5352 51.7494 88.5535 52.2729 88.6122C54.3012 88.841 56.3025 88.7174 58.2121 87.9468C60.0794 87.2104 61.6896 85.9425 62.8436 84.3001C63.0882 83.9588 63.0882 83.7337 62.7726 83.4205C61.6545 82.2951 60.5462 81.1574 59.4819 79.9818C59.0713 79.5343 58.7366 79.0228 58.491 78.4674C57.932 77.156 58.4115 75.9388 59.6764 75.2868C60.874 74.6641 62.1291 74.6262 63.4136 74.9626C65.0504 75.392 66.4719 76.2569 68.0034 77.293C67.8677 76.9554 67.7955 76.7621 67.7123 76.5725C65.2372 70.9379 62.7608 65.3038 60.2832 59.67C59.9015 58.8052 59.7107 57.9317 59.9394 57.0045C60.315 55.479 61.5187 54.4612 63.0552 54.3487C64.6455 54.2325 66.0388 55.1512 66.6982 56.6876C67.8359 59.3361 69.0004 61.9748 70.1846 64.6893C70.97 63.8966 71.8666 63.4158 72.9603 63.4501C74.0539 63.4843 74.9494 63.9687 75.7041 64.8251C76.4589 64.0103 77.3458 63.5039 78.4786 63.5112C78.9723 63.5149 79.4602 63.6191 79.9124 63.8174C80.3645 64.0157 80.7716 64.3041 81.1087 64.6648C81.8427 64.2697 82.4751 63.7852 83.1883 63.5797C84.8875 63.0904 86.594 64.0018 87.3243 65.6655C89.3566 70.2969 91.382 74.9308 93.4005 79.5671C93.5547 79.9595 93.6223 80.3805 93.5987 80.8014C93.5583 82.0247 93.4152 83.2383 93.4078 84.4567C93.4078 84.8934 93.6623 85.335 93.8213 85.7681C93.9436 86.1106 94.1296 86.4348 94.2384 86.781C94.395 87.2776 94.1932 87.6642 93.7589 87.9125C93.3246 88.1608 92.7191 88.0348 92.5283 87.5944C92.0243 86.4237 91.1826 85.3521 91.4567 83.9307C91.579 83.3373 91.5203 82.7073 91.5925 82.1079C91.7221 81.0326 91.5276 80.0552 91.0725 79.0497C89.1679 74.8513 87.3415 70.6174 85.4759 66.4019C85.164 65.6973 84.5413 65.3388 83.8856 65.4233C83.2299 65.5077 82.6464 65.9676 82.5277 66.6392C82.4765 66.9569 82.5094 67.2826 82.6232 67.5836C82.9681 68.473 83.3706 69.3391 83.7449 70.2174C84.041 70.911 83.8783 71.4847 83.3278 71.7172C82.7773 71.9496 82.2709 71.6915 81.954 70.9832C81.2922 69.5005 80.6488 68.0093 79.9723 66.534C79.5502 65.6104 78.6927 65.2434 77.8841 65.5884C77.0755 65.9334 76.7403 66.8117 77.122 67.7463C77.5991 68.9109 78.1239 70.0559 78.6217 71.2119C78.9263 71.919 78.7734 72.4622 78.2144 72.7154C77.6553 72.9686 77.1562 72.7154 76.8369 72.001C76.0198 70.166 75.2209 68.3213 74.3903 66.4961C73.9671 65.5639 73.123 65.1957 72.3107 65.5309C71.4984 65.8661 71.1535 66.7542 71.5633 67.7329C72.2752 69.4381 73.0557 71.1153 73.7481 72.8279C73.8888 73.1753 73.9047 73.7001 73.7383 74.0194C73.4019 74.6629 72.4538 74.5601 72.1089 73.8763C71.7896 73.2426 71.5253 72.5808 71.2391 71.93C69.2043 67.2953 67.1675 62.6631 65.1287 58.0333C65.0137 57.7727 64.8901 57.517 64.7617 57.2626C64.3458 56.4161 63.4809 56.065 62.6821 56.4136C61.9297 56.7439 61.5689 57.6369 61.9163 58.4798C62.446 59.7765 63.0258 61.0487 63.5885 62.3369C65.8247 67.4331 68.0438 72.538 70.3167 77.6147C70.7155 78.5041 70.5271 79.287 70.2543 80.0821C70.0231 80.7537 69.2757 80.8161 68.6347 80.3341C67.601 79.5463 66.5942 78.7096 65.4895 78.0343C64.6265 77.503 63.6906 77.1004 62.7114 76.8391C62.0912 76.6777 61.3658 76.8526 60.6966 76.9762C60.1841 77.0728 60.0923 77.4789 60.3492 77.9181C60.498 78.1826 60.677 78.4289 60.8826 78.6521C63.9188 81.8327 66.9608 85.0035 70.0084 88.1645C70.2346 88.3931 70.4998 88.5795 70.7914 88.715C72.318 89.4319 73.8668 90.0986 75.3775 90.8448C75.7445 91.0258 76.0602 91.3989 76.2755 91.7586C76.5849 92.2773 76.7831 92.8596 77.0253 93.4223C77.4205 94.3312 77.3018 94.6921 76.4614 95.1655L76.1078 95.1667Z" fill="#1C3B72"/>
</svg>
